HIERARCHY
ROOT Hips
{
	OFFSET 0.00000 0.00000 0.00000
	CHANNELS 6 Xposition Yposition Zposition Yrotation Zrotation Xrotation 
	JOINT Lumbar
	{
		OFFSET 0 0 0
		CHANNELS 3 Zrotation Xrotation Yrotation
		JOINT Neck
		{
			OFFSET 0.00 0.2701 0.00
			CHANNELS 3 Zrotation Xrotation Yrotation
			End Site
			{
				OFFSET 0.00 0.1379 0.00
			}
		}
		JOINT RightShoulder
		{
			OFFSET 0.0119 0.2289 0.1181
			CHANNELS 3 Zrotation Xrotation Yrotation
			JOINT RightElbow
			{
				OFFSET 0.00 -0.1475 0.00
				CHANNELS 2 Zrotation Yrotation
				JOINT RightWrist
				{
					OFFSET 0.00 -0.1605 0.00
					CHANNELS 2 Zrotation Xrotation
					End Site
					{
						OFFSET 0.0040 -0.1068 0.0006
					}
				}
			}
		}
		JOINT LeftShoulder
		{
			OFFSET 0.0119 0.2289 -0.1181
			CHANNELS 3 Zrotation Xrotation Yrotation
			JOINT LeftElbow
			{
				OFFSET 0.00 -0.1475 0.00
				CHANNELS 2 Zrotation Yrotation
				JOINT LeftWrist
				{
					OFFSET 0.00 -0.1605 0.00
					CHANNELS 2 Zrotation Xrotation
					End Site
					{
						OFFSET 0.0040 -0.1068 -0.0006
					}
				}
			}
		}
	}
	JOINT RightHip
	{
		OFFSET 0.0316 -0.0424 0.0458
		CHANNELS 3 Zrotation Xrotation Yrotation
		JOINT RightKnee
		{
			OFFSET 0.00 -0.2438 0.00
			CHANNELS 1 Zrotation
			JOINT RightAnkle
			{
				OFFSET 0.00 -0.2449 0.00
				CHANNELS 3 Zrotation Xrotation Yrotation
				End Site
				{
					OFFSET 0.1237 -0.0542 0.0051
				}
			}
		}
	}
	JOINT LeftHip
	{
		OFFSET 0.0316 -0.0424 -0.0458
		CHANNELS 3 Zrotation Xrotation Yrotation
		JOINT LeftKnee
		{
			OFFSET 0.00 -0.2438 0.00
			CHANNELS 1 Zrotation
			JOINT LeftAnkle
			{
				OFFSET 0.00 -0.2449 0.00
				CHANNELS 3 Zrotation Xrotation Yrotation
				End Site
				{
					OFFSET 0.1237 -0.0542 -0.0051
				}
			}
		}
	}
}
MOTION
Frames: 17
Frame Time: 0.02
5e-05 1e-05 -6e-05 23.47805 -22.92115 -7.23655 42.54809 2.10201 -4.71662 -13.58946 -0.94357 -0.43353 72.53213 -100.73173 64.16952 5.99812 99.35305 11.5987 0.6784 57.98751 100.76435 -64.17365 6.67835 -92.81917 8.66682 0.42915 38.44041 -3.45289 -3.39682 -22.61571 -7.05405 -3.83021 -2.58818 42.87512 8.51639 0.24835 -27.80734 -6.66612 2.6935 2.0483
0.0001 2e-05 -0.0001 23.47766 -22.93871 -7.23406 42.56018 2.099 -4.73836 -13.58556 -0.94604 -0.43362 72.48915 -100.74286 64.16952 6.00273 99.37151 11.59835 0.66755 58.04941 100.74968 -64.17315 6.67143 -92.83227 8.66888 0.42983 38.45386 -3.45011 -3.36271 -22.61628 -7.05257 -3.82484 -2.59301 42.8879 8.50199 0.20665 -27.80703 -6.66669 2.70548 2.05363
0.00014 3e-05 -0.00013 23.47726 -22.95623 -7.23158 42.57228 2.09599 -4.76005 -13.58166 -0.94849 -0.43371 72.44603 -100.75399 64.16952 6.00735 99.38991 11.59802 0.6567 58.11086 100.7351 -64.17265 6.66456 -92.84531 8.67092 0.43053 38.46726 -3.44737 -3.32887 -22.61684 -7.0511 -3.81948 -2.59781 42.90063 8.48764 0.16507 -27.80673 -6.66725 2.71743 2.05896
0.00019 4e-05 -0.00016 23.47687 -22.97375 -7.22909 42.58434 2.09299 -4.78172 -13.57777 -0.95095 -0.4338 72.40313 -100.76509 64.16952 6.01194 99.40831 11.59768 0.64588 58.17253 100.72048 -64.17215 6.65767 -92.85836 8.67298 0.43121 38.48067 -3.44459 -3.29489 -22.61741 -7.04963 -3.81413 -2.60263 42.91337 8.47329 0.1235 -27.80643 -6.66782 2.72937 2.06428
0.00023 6e-05 -0.0002 23.4765 -22.99128 -7.2266 42.59639 2.08999 -4.80344 -13.57389 -0.95343 -0.43388 72.36049 -100.77616 64.16952 6.01651 99.42675 11.59732 0.63507 58.23474 100.70576 -64.17164 6.65074 -92.87147 8.67507 0.43187 38.49412 -3.44178 -3.26059 -22.61799 -7.04817 -3.80877 -2.60747 42.92615 8.45889 0.0818 -27.80612 -6.66839 2.74135 2.06961
0.00028 7e-05 -0.00023 23.47601 -23.00879 -7.22414 42.60859 2.08698 -4.82505 -13.56993 -0.95584 -0.43397 72.31642 -100.78744 64.16952 6.02124 99.44508 11.59707 0.62413 58.29459 100.69147 -64.17114 6.644 -92.88437 8.67698 0.43263 38.50742 -3.43918 -3.22772 -22.61852 -7.04667 -3.80338 -2.61219 42.93877 8.44463 0.04046 -27.80582 -6.66895 2.75325 2.07492
0.00033 8e-05 -0.00026 23.47577 -23.02633 -7.22162 42.62047 2.08398 -4.84685 -13.56614 -0.95838 -0.43406 72.2752 -100.79829 64.16952 6.02565 99.46362 11.59658 0.61347 58.35912 100.67632 -64.17064 6.63687 -92.89767 8.67926 0.4332 38.52103 -3.43614 -3.19199 -22.61914 -7.04525 -3.79808 -2.61715 42.95172 8.43012 -0.00153 -27.80551 -6.66954 2.76529 2.08027
0.00037 9e-05 -0.0003 23.47529 -23.04384 -7.21915 42.63264 2.08097 -4.86847 -13.56219 -0.96081 -0.43415 72.23145 -100.80951 64.16953 6.03034 99.48197 11.59632 0.60255 58.41933 100.66197 -64.17014 6.63011 -92.9106 8.6812 0.43394 38.53433 -3.43352 -3.15894 -22.61968 -7.04375 -3.79268 -2.62189 42.96434 8.41583 -0.04294 -27.80521 -6.6701 2.7772 2.08558
0.00042 0.0001 -0.00033 23.47455 -23.06133 -7.21675 42.64521 2.07796 -4.88993 -13.55804 -0.96306 -0.43424 72.18414 -100.82127 64.16953 6.03543 99.50006 11.59635 0.59128 58.47429 100.6486 -64.16965 6.62377 -92.92309 8.6827 0.4349 38.54731 -3.43139 -3.12899 -22.62012 -7.04217 -3.78722 -2.62637 42.97663 8.40181 -0.0836 -27.80493 -6.67062 2.78895 2.09083
0.00046 0.00011 -0.00036 23.47541 -23.07901 -7.21397 42.65559 2.07499 -4.91249 -13.55503 -0.96622 -0.43433 72.15591 -100.83022 64.16953 6.03841 99.51955 11.59472 0.58193 58.55955 100.62958 -64.1691 6.61489 -92.93816 8.68668 0.43461 38.56232 -3.42634 -3.08069 -22.62114 -7.04112 -3.7823 -2.63238 42.99105 8.38626 -0.12844 -27.80455 -6.67135 2.80161 2.09642
0.00052 0.00013 -0.0004 23.47285 -23.0962 -7.21198 42.67051 2.07193 -4.93262 -13.54963 -0.96751 -0.43442 72.08836 -100.84491 64.16953 6.04572 99.53616 11.59659 0.56862 58.58082 100.62247 -64.16867 6.61145 -92.94777 8.68548 0.43699 38.57295 -3.42752 -3.07144 -22.62094 -7.0389 -3.77613 -2.63513 43.00086 8.37393 -0.16456 -27.80437 -6.67163 2.81238 2.10131
0.00065 0.00015 -0.00046 23.46124 -23.11284 -7.21233 42.6987 2.06865 -4.94694 -13.53761 -0.96336 -0.43451 71.90445 -100.87711 64.16953 6.06579 99.54401 11.60809 0.54352 58.42538 100.64839 -64.16859 6.62253 -92.94235 8.66957 0.44656 38.57214 -3.44542 -3.16768 -22.61717 -7.03369 -3.76721 -2.62918 42.99893 8.37071 -0.17568 -27.80483 -6.67075 2.81764 2.10422
0.0008 0.00017 -0.00053 23.44617 -23.12884 -7.21344 42.73128 2.06527 -4.95868 -13.52321 -0.95738 -0.4346 71.68289 -100.91471 64.16954 6.09 99.54911 11.62309 0.51464 58.20607 100.68615 -64.16863 6.63914 -92.93147 8.64855 0.45884 38.5668 -3.46967 -3.30348 -22.6122 -7.02726 -3.75692 -2.61991 42.99221 8.37069 -0.1783 -27.80549 -6.6694 2.82108 2.10645
0.00095 0.00019 -0.00059 23.43246 -23.14463 -7.21407 42.76134 2.06193 -4.97104 -13.50994 -0.95245 -0.43469 71.48373 -100.94875 64.16955 6.11179 99.556 11.63649 0.48801 58.01648 100.71829 -64.16861 6.65351 -92.9231 8.63021 0.47003 38.56315 -3.49127 -3.42221 -22.60792 -7.02124 -3.74681 -2.61201 42.98709 8.36908 -0.18543 -27.806 -6.66822 2.82558 2.10905
0.00109 0.00021 -0.00065 23.41958 -23.16255 -7.21523 42.79367 2.05862 -4.98568 -13.49646 -0.94662 -0.43477 71.26104 -100.98762 64.16953 6.13602 99.56061 11.65 0.45894 57.82307 100.75161 -64.1686 6.66679 -92.91453 8.61039 0.48074 38.56111 -3.51184 -3.53701 -22.60305 -7.0158 -3.73856 -2.6047 42.98439 8.36809 -0.18956 -27.80672 -6.66722 2.82909 2.11141
0.00124 0.00023 -0.00072 23.40425 -23.17584 -7.21552 42.82225 2.05522 -4.995 -13.48288 -0.94218 -0.43488 71.07984 -101.01753 64.16958 6.15595 99.56929 11.66402 0.43428 57.62343 100.7851 -64.1686 6.68359 -92.90518 8.59242 0.49296 38.55457 -3.53609 -3.6696 -22.59912 -7.00888 -3.7261 -2.59538 42.97552 8.36652 -0.1982 -27.80708 -6.66573 2.83422 2.1141
0.00139 0.00025 -0.00078 23.38225 -23.17667 -7.21281 42.83977 2.05152 -4.98988 -13.4693 -0.94244 -0.43508 71.01062 -101.023 64.16986 6.16475 99.59009 11.67943 0.42098 57.41453 100.8177 -64.16859 6.70934 -92.89412 8.58099 0.50965 38.53742 -3.56868 -3.83914 -22.59825 -6.99805 -3.70241 -2.58142 42.95089 8.36319 -0.21837 -27.80629 -6.66293 2.84421 2.11771
